<svg xmlns="http://www.w3.org/2000/svg" version="1.1" class="staticContent" height="100%" width="100%"
     preserveAspectRatio="none" viewBox="0 0 32 32">

    <g id="Airplane">
        <path fill="#666666"
              d="M15.9,8.9l-4.4,1.9c-0.1,0.1-0.3,0.1-0.4,0c0,0-4.5-2.8-4.6-2.8C6.4,7.8,6.4,7.7,6.7,7.5 c1.2-0.7,2.4-0.7,3.7-0.3C12.2,7.8,14,8.3,15.9,8.9z"/>
        <path fill="#666666" d="M16.3,15.7c-0.2,0.1-0.3,0.1-0.4,0.2c-2.1,0.9-4.2,1.9-6.5,2.6c-1.3,0.4-2.6,0.7-3.9,0.9
		c-0.7,0.1-1.4,0.1-2-0.2c-0.5-0.2-0.6-0.2-1-0.9c-0.8-1.6-1.6-3.7-2.4-5.4c-0.2-0.5-0.1-0.9,0.5-1.1c0.5-0.1,1-0.1,1.4,0.3
		c0.9,0.7,1.9,1.6,2.7,2.3c0.5,0.4,1,0.5,1.7,0.2l18.1-8.1c1.2-0.5,2.5-0.9,3.8-0.8c1,0.1,2,0.3,2.9,1c0.9,0.7,0.8,1,0,1.5
		c-1,0.7-2,1.3-3.1,1.9c-1.7,0.9-3.5,1.8-5.3,2.6c-0.2,0.1-0.4,0.2-0.5,0.5c-1.6,3.4-3.2,7.1-4.8,10.5c-0.2,0.5-0.5,0.9-0.8,1.3
		c-0.5,0.7-1.3,1-2,1.3c-0.2,0.1-0.4,0-0.3-0.3c0-0.5,1.3-7.2,1.8-10C16.3,15.9,16.3,15.8,16.3,15.7z M24,9.6
		c-0.3,0-0.6,0.3-0.6,0.7S23.6,11,24,11s0.6-0.3,0.6-0.7S24.3,9.6,24,9.6z M25.8,8.7c-0.3,0-0.6,0.3-0.6,0.7c0,0.4,0.3,0.7,0.6,0.7
		s0.6-0.3,0.6-0.7C26.3,9,26.1,8.7,25.8,8.7z M27.6,7.8c-0.3,0-0.6,0.3-0.6,0.7c0,0.4,0.3,0.7,0.6,0.7s0.6-0.3,0.6-0.7
		C28.2,8.1,27.9,7.8,27.6,7.8z"/>
    </g>

    <rect style="fill:none!important;stroke:none!important;pointer-events:all!important" x="0" y="4" width="32"
          height="24"/>
</svg>