<svg xmlns="http://www.w3.org/2000/svg" version="1.1" class="staticContent" height="100%" width="100%"
	 preserveAspectRatio="none" viewBox="0 0 32 32">
	<g id="Book">
	<path fill="#666666" d="M28.6,26.9c-0.5,0-0.8,0.4-0.8,0.8v2.4H7H6.5c-1.3,0-2.3-1-2.3-2.3c0-1.3,1-2.3,2.3-2.3H7V0.1V0H6.5
		c-2.2,0-4,1.8-4,4v23.8V28c0,2.2,1.8,4,4,4H7h22.5v-1.8v-2.4C29.5,27.3,29.1,26.9,28.6,26.9z"/>
	<path fill="#666666" d="M28.5,0H8.7v25.6h13.3h6.5c0.5,0,1-0.5,1-1V1C29.5,0.5,29,0,28.5,0z M26.2,9.9H12.3V6.6h13.9V9.9z"/>
</g>

<rect style="fill:none!important;stroke:none!important;pointer-events:all!important"  x="2" y="0" width="28" height="32" />

</svg>