<svg xmlns="http://www.w3.org/2000/svg" version="1.1" class="staticContent" height="100%" width="100%"
	 preserveAspectRatio="none" viewBox="0 0 32 32">

<g id="Briefcase">
	<path fill="#666666" d="M0.3,12.1v13.8c0,2.2,1.8,3.9,3.9,3.9V8.1C2.1,8.1,0.3,9.9,0.3,12.1z"/>
	<path fill="#666666" d="M27.8,8.1v21.6c2.2,0,3.9-1.8,3.9-3.9V12.1C31.7,9.9,29.9,8.1,27.8,8.1z"/>
	<path fill="#666666" d="M21.9,5.2c0-1.6-1.3-2.9-2.9-2.9h-5.9c-1.6,0-2.9,1.3-2.9,2.9v2.9H6.2v21.6h19.6V8.1h-3.9V5.2z M12.1,6.2h7.9v2h-7.9V6.2z"/>
</g>

<rect style="fill:none!important;stroke:none!important;pointer-events:all!important" x="0" y="8" width="32" height="22" />
</svg>