<svg xmlns="http://www.w3.org/2000/svg" version="1.1" class="staticContent" height="100%" width="100%"
	 preserveAspectRatio="none" viewBox="0 0 32 32">

<g id="Calendar">
	<path fill="#666666" d="M28.1,5.2v0.6c0,2.2-1.8,4-4,4h-0.3c-2.2,0-4-1.8-4-4V5.2h-7.6v0.6c0,2.2-1.8,4-4,4H7.9c-2.2,0-4-1.8-4-4
		V5.2H0V32h32V5.2H28.1z M9.3,26.9H4.7v-4.6h4.6V26.9z M9.3,19.1H4.7v-4.6h4.6V19.1z M18.5,26.9h-4.6v-4.6h4.6V26.9z M18.5,19.1
		h-4.6v-4.6h4.6V19.1z M27.3,26.9h-4.6v-4.6h4.6V26.9z M27.3,19.1h-4.6v-4.6h4.6V19.1z"/>
	<path fill="#666666" d="M8.1,8.1H8c-1.1,0-2-0.9-2-2V2c0-1.1,0.9-2,2-2h0.2c1.1,0,2,0.9,2,2v4.1C10.1,7.2,9.2,8.1,8.1,8.1z"/>
	<path fill="#666666" d="M24,8.1h-0.2c-1.1,0-2-0.9-2-2V2c0-1.1,0.9-2,2-2H24c1.1,0,2,0.9,2,2v4.1C26,7.2,25.1,8.1,24,8.1z"/>
</g>

<rect style="fill:none!important;stroke:none!important;pointer-events:all!important" x="0" y="5" width="32" height="26" />
</svg>