<svg xmlns="http://www.w3.org/2000/svg" version="1.1" class="staticContent" height="100%" width="100%"
	 preserveAspectRatio="none" viewBox="0 0 32 32">

<g id="Car">
	<path fill="#666666" d="M29.1,11.9l-2.8-6.8c0,0-0.6-2.1-2.4-2.1H8.4c0,0-1.5-0.1-2.3,1.2l-3.2,7.6C1.2,12.2,0,13.6,0,15.3v8.6
		h2.5v2.4c0,1.4,1.2,2.6,2.6,2.6c1.4,0,2.6-1.2,2.6-2.6v-2.4h16.7v2.4c0,1.4,1.2,2.6,2.6,2.6c1.4,0,2.6-1.2,2.6-2.6v-2.4H32v-8.6
		C32,13.6,30.8,12.2,29.1,11.9z M5,18.8c-1.2,0-2.2-1-2.2-2.2c0-1.2,1-2.2,2.2-2.2s2.2,1,2.2,2.2C7.2,17.8,6.2,18.8,5,18.8z
		M5.4,11.9l2.6-6.1c0,0,0.2-0.6,1-0.6h14.3c0,0,0.6,0.1,0.7,0.5l2.6,6.2H5.4z M26.8,18.8c-1.2,0-2.2-1-2.2-2.2
		c0-1.2,1-2.2,2.2-2.2c1.2,0,2.2,1,2.2,2.2C29,17.8,28,18.8,26.8,18.8z"/>
</g>

<rect style="fill:none!important;stroke:none!important;pointer-events:all!important" x="2" y="2" width="28" height="28"/>
</svg>