<svg xmlns="http://www.w3.org/2000/svg" version="1.1" class="staticContent" height="100%" width="100%"
	 preserveAspectRatio="none" viewBox="0 0 32 32">

<g id="City">
		<path fill="#666666" d="M11.4,1.7v28.6h9.3V1.7H11.4z M17,4.7h1.9v1.9H17V4.7z M17,8.6h1.9v1.9H17V8.6z M15.1,21.6h-1.9v-1.9h1.9
			V21.6z M15.1,17.9h-1.9V16h1.9V17.9z M15.1,14.2h-1.9v-1.9h1.9V14.2z M15.1,10.4h-1.9V8.6h1.9V10.4z M15.1,6.6h-1.9V4.7h1.9V6.6z
			M17,12.3h1.9v1.9H17V12.3z M18.9,21.6H17v-1.9h1.9V21.6z M18.9,17.9H17V16h1.9V17.9z"/>
		<path fill="#666666" d="M0,10.4v19.8h9.3V10.4H0z M3.7,22.8H1.9V21h1.9V22.8z M3.7,19.1H1.9v-1.9h1.9V19.1z M3.7,15.4H1.9v-1.9
			h1.9V15.4z M7.4,22.8H5.6V21h1.9V22.8z M7.4,19.1H5.6v-1.9h1.9V19.1z M7.4,15.4H5.6v-1.9h1.9V15.4z"/>
		<path fill="#666666" d="M22.7,14.2v16.1H32V14.2H22.7z M26.4,22.8h-1.9V21h1.9V22.8z M26.4,19.1h-1.9v-1.9h1.9V19.1z M30.1,22.8
			h-1.9V21h1.9V22.8z M30.1,19.1h-1.9v-1.9h1.9V19.1z"/>
</g>

<polygon style="fill:none!important;stroke:none!important;pointer-events:all!important" points="0,10 8,10 12,2 20,2 24,14 32,14 32,30 0,30" />
</svg>