<svg xmlns="http://www.w3.org/2000/svg" version="1.1" class="staticContent" height="100%" width="100%"
	 preserveAspectRatio="none" viewBox="0 0 32 32">
	<g id="Desktop">
	<path fill="#666666" d="M30.4,2.4H1.6C0.7,2.4,0,3.1,0,3.9V23c0,0.9,0.7,1.5,1.5,1.5h11.1l-0.4,2.9c0,0.2-0.2,0.4-0.5,0.4h-1.5
		v1.7h11.5v-1.7h-1.6c-0.2,0-0.4-0.2-0.5-0.4l-0.4-2.9h11.1c0.9,0,1.5-0.7,1.5-1.5V3.9C32,3.1,31.3,2.4,30.4,2.4z M29.6,20.9
		c0,0.4-0.4,0.8-0.8,0.8H3.3c-0.4,0-0.8-0.4-0.8-0.8V5.1c0-0.4,0.4-0.8,0.8-0.8h25.5c0.4,0,0.8,0.4,0.8,0.8V20.9z"/>
</g>

<rect style="fill:none!important;stroke:none!important;pointer-events:all!important" x="0" y="3" width="32" height="22" />
</svg>