<svg xmlns="http://www.w3.org/2000/svg" version="1.1" class="staticContent" height="100%" width="100%"
	 preserveAspectRatio="none" viewBox="0 0 32 32">
	<g id="Education">
	<path fill="#666666" d="M29.9,23c1-2.4,0.8-5.2,0.8-7.7c0-1,0-2,0-3.1c-0.3,0.1-0.5,0.2-0.7,0.3c-3.9,1.7-7.9,3.3-11.8,5
		c-1.5,0.6-3.2,0.7-4.8,0.1C9.2,15.9,5,14.3,0.8,12.7c-0.2-0.1-0.4-0.2-0.6-0.3c-0.3-0.3-0.4-0.8,0-1c0.2-0.2,0.4-0.3,0.6-0.4
		c4.2-1.6,8.5-3.2,12.7-4.8c1.5-0.6,3-0.6,4.5-0.1c4.2,1.5,8.3,3,12.5,4.4c0.3,0.1,0.6,0.2,0.9,0.4c0.1,0.1,0.2,0.4,0.2,0.6
		c0,0.5-0.2,1-0.2,1.5c0,0.5-0.2,1.9-0.2,2.3c0,2.8-0.2,4.8,0.8,7.6C31.2,23,29.9,23,29.9,23z"/>
	<path fill="#666666" d="M5.2,16.6c0-0.4,0.4-0.7,0.8-0.5c1.3,0.5,2.3,0.9,3.4,1.4c1.4,0.7,3,1.2,4.5,1.7c1.4,0.5,2.9,0.3,4.2-0.2
		c0.9-0.4,1.9-0.9,2.8-1.2c1.4-0.5,2.9-1.2,4.3-1.7c0.4-0.1,0.8,0.1,0.7,0.5c0,1.5-0.1,3.6-0.2,4.7c-0.1,0.9-0.9,1.5-1.7,1.9
		c-2.2,0.9-4.4,1.9-6.6,2.8c-1.2,0.5-2.7,0.5-3.9,0c-2.1-0.9-4.3-1.8-6.4-2.8c-1.2-0.5-1.9-1.4-2-2.7C5.2,19.6,5.2,17.9,5.2,16.6z"/>
</g>

<polygon style="fill:none!important;stroke:none!important;pointer-events:all!important" points="0,12 32,12 16,26" />
</svg>