<svg xmlns="http://www.w3.org/2000/svg" version="1.1" class="staticContent" height="100%" width="100%"
     preserveAspectRatio="none" viewBox="0 0 32 32">
    <path fill="#666666" d="M13.7,0h4.5c1.4,0,1.6,0.8,1.6,1.3c0,0.2,0,0.2,0,0.4l0,0.5l-0.9,16.6c-0.1,1.3-0.7,1.5-1.6,1.5h-2.4 c-0.9,0-1.5-0.2-1.6-1.5l-1-17.1c0-0.2,0-0.2,0-0.4C12.2,0.8,12.4,0,13.7,0z"/>
<path fill="#666666" d="M16,32c-2.4,0-4.3-1.9-4.3-4.3c0-2.4,1.9-4.3,4.3-4.3c2.4,0,4.3,1.9,4.3,4.3C20.3,30,18.3,32,16,32z"/>

<rect style="fill:none!important;stroke:none!important;pointer-events:all!important" x="8" y="0" width="16" height="32"/>
</svg>