<svg xmlns="http://www.w3.org/2000/svg" version="1.1" class="staticContent" height="100%" width="100%"
	 preserveAspectRatio="none" viewBox="0 0 32 32">
	<g id="Female">
	<path d="M 16 0 C 10.2 0 5.5 4.7 5.5 10.5 C 5.5 15.720225 9.310864 20.036278 14.300781 20.849609 L 14.300781 24.5 L 8.1992188 24.5 L 8.1992188 28 L 14.300781 28 L 14.300781 32 L 17.800781 32 L 17.800781 28 L 24.199219 28 L 24.199219 24.5 L 17.800781 24.5 L 17.800781 20.835938 C 22.741078 19.981102 26.5 15.685015 26.5 10.5 C 26.5 4.7 21.8 0 16 0 z M 16.199219 3.4003906 C 20.199219 3.4003906 23.400391 6.5996094 23.400391 10.599609 C 23.400391 14.499609 20.199219 17.800781 16.199219 17.800781 C 12.199219 17.800781 9 14.599609 9 10.599609 C 9 6.5996094 12.199219 3.4003906 16.199219 3.4003906 z "/>
</g>
<circle style="fill:none!important;stroke:none!important;pointer-events:all!important" r="9" cx="16" cy="11" />
</svg>