<svg xmlns="http://www.w3.org/2000/svg" version="1.1" class="staticContent" height="100%" width="100%"
	 preserveAspectRatio="none" viewBox="0 0 32 32">
	<g id="Food">
	<path fill="#666666" d="M15.3,0.9V11c0,1.4-1.1,2.6-2.6,2.6h-0.1v17c0,0.8-0.6,1.4-1.4,1.4h-1.1c-0.8,0-1.4-0.6-1.4-1.4v-17H8.6
		c-1.4,0-2.6-1.1-2.6-2.6V0.9c0-0.4,0.3-0.7,0.7-0.7h0.5c0.4,0,0.7,0.3,0.7,0.7l0,8.9c0,0.5,0.4,0.9,0.9,0.9h0
		c0.5,0,0.9-0.4,0.9-0.9l0-8.9c0-0.4,0.3-0.7,0.7-0.7H11c0.4,0,0.7,0.3,0.7,0.7l0,8.9c0,0.5,0.4,0.9,0.9,0.9h0
		c0.5,0,0.9-0.4,0.9-0.9l0-8.9c0-0.4,0.3-0.7,0.7-0.7h0.5C15,0.2,15.3,0.5,15.3,0.9z"/>
	<path fill="#666666" d="M22.8,0L22.8,0c-1.8,0-3.2,1.7-3.2,3.8v13.3H22v13.6c0,0.8,0.5,1.4,1.1,1.4h1.6c0.6,0,1.1-0.6,1.1-1.4
		V17.1v-1.9V3.8C25.9,1.7,24.5,0,22.8,0z"/>
</g>

<polygon style="fill:none!important;stroke:none!important;pointer-events:all!important" points="6,1 26,1 26,31 6,31" />
</svg>