<svg xmlns="http://www.w3.org/2000/svg" version="1.1" class="staticContent" height="100%" width="100%"
	 preserveAspectRatio="none" viewBox="0 0 32 32">
	<g id="Gear">
	<path fill="#666666" d="M28.8,14.8l2.8-1.6l-1.2-3.9l-3.2,0.3c-0.4-0.7-0.9-1.4-1.5-2.1l1.3-3l-3.3-2.5l-2.4,2.1
		c-0.4-0.2-0.8-0.3-1.2-0.5c-0.4-0.1-0.8-0.3-1.2-0.3l-0.6-3.2l-4.1,0l-0.7,3.2c-0.8,0.2-1.7,0.4-2.4,0.8L8.6,2L5.2,4.4l1.3,3
		C5.9,8,5.4,8.7,5,9.4L1.7,9l-1.3,3.9l2.8,1.7c-0.1,0.9-0.1,1.7,0,2.6l-2.8,1.6l1.2,3.9l3.2-0.3c0.4,0.7,0.9,1.4,1.5,2.1l-1.3,3
		l3.3,2.5l2.4-2.1c0.4,0.2,0.8,0.3,1.2,0.5c0.4,0.1,0.8,0.3,1.2,0.3l0.6,3.2l4.1,0l0.7-3.2c0.8-0.2,1.7-0.4,2.4-0.8l2.4,2.2
		l3.4-2.4l-1.3-3c0.6-0.6,1.1-1.3,1.5-2.1l3.2,0.4l1.3-3.9l-2.8-1.7C28.9,16.5,28.9,15.7,28.8,14.8z M16,22.1
		c-3.4,0-6.1-2.7-6.1-6.1c0-3.4,2.7-6.1,6.1-6.1s6.1,2.7,6.1,6.1C22.1,19.4,19.4,22.1,16,22.1z"/>
</g>

<circle style="fill:none!important;stroke:none!important;pointer-events:all!important" cx="16" cy="16" r="15" />
</svg>