<svg xmlns="http://www.w3.org/2000/svg" version="1.1" class="staticContent" height="100%" width="100%"
	 preserveAspectRatio="none" viewBox="0 0 32 32">
	<g id="Government">
	<polygon fill="#666666" points="1.7,7.5 1.7,8.5 30.3,8.5 30.3,7.5 16,0.7"/>
	<rect x="4.5" y="9" fill="#666666" width="22.9" height="1.8"/>
	<polygon fill="#666666" points="5.5,11.3 8.1,11.3 8.5,25.3 5.1,25.3"/>
	<polygon fill="#666666" points="11.6,11.3 14.2,11.3 14.6,25.3 11.2,25.3"/>
	<polygon fill="#666666" points="17.7,11.3 20.3,11.3 20.7,25.3 17.3,25.3"/>
	<polygon fill="#666666" points="23.8,11.3 26.4,11.3 26.8,25.3 23.4,25.3"/>
	<polygon fill="#666666" points="30.5,29.4 30.5,27.6 28.9,27.6 28.9,25.9 3,25.9 3,27.6 1.4,27.6 1.4,29.4 0,29.4 0,31.3 32,31.3 32,29.4"/>
</g>

<polygon style="fill:none!important;stroke:none!important;pointer-events:all!important" points="2,8 30,8 30,31 2,31" />
</svg>
