<svg xmlns="http://www.w3.org/2000/svg" version="1.1" class="staticContent" height="100%" width="100%"
	 preserveAspectRatio="none" viewBox="0 0 32 32">
	<g id="Happy">
	<path fill="#666666" d="M16,0.3C7.3,0.3,0.3,7.3,0.3,16c0,8.7,7,15.7,15.7,15.7s15.7-7,15.7-15.7C31.7,7.3,24.7,0.3,16,0.3z
		M16,29.4c-7.4,0-13.4-6-13.4-13.4c0-7.4,6-13.4,13.4-13.4s13.4,6,13.4,13.4C29.4,23.4,23.4,29.4,16,29.4z"/>
	<circle fill="#666666" cx="12" cy="12.7" r="1.8"/>
	<circle fill="#666666" cx="20.3" cy="12.7" r="1.8"/>
	<path fill="#666666" d="M22.5,19.7c-0.4,0-0.7,0.2-0.8,0.6c-0.6,1.9-2.8,3.3-5.4,3.3c-2.5,0-4.8-1.4-5.4-3.3
		c-0.1-0.4-0.6-0.7-1.1-0.6c-0.4,0.1-0.7,0.6-0.6,1.1c0.8,2.6,3.7,4.5,7,4.5c3.3,0,6.2-1.8,7-4.5c0.1-0.4-0.1-0.9-0.6-1.1
		C22.7,19.7,22.6,19.7,22.5,19.7z"/>
</g>

<circle style="fill:none!important;stroke:none!important;pointer-events:all!important" cx="16" cy="16" r="15" />
</svg>