<svg xmlns="http://www.w3.org/2000/svg" version="1.1" class="staticContent" height="100%" width="100%"
	 preserveAspectRatio="none" viewBox="0 0 32 32">

<g id="Heart">
	<g>
		<path fill="#666666" d="M15.7,30.7c-0.6-0.8-1.1-1.5-1.7-2.3c-1.3-1.6-2.7-3-4.2-4.3c-1.3-1.2-2.6-2.3-4-3.5
			c-1.2-1.1-2.3-2.2-3.2-3.5c-0.9-1.3-1.7-2.6-2.1-4.1c-0.2-0.9-0.4-1.7-0.4-2.6c0-0.1,0-0.1,0-0.2c0-0.3,0-0.6,0-1c0,0,0-0.1,0-0.1
			c0.1-0.5,0.1-1,0.3-1.6c0.5-2.1,1.7-3.8,3.5-5c1.1-0.8,2.4-1.2,3.7-1.4C7.8,1,8,1,8.2,1c0.3,0,0.6,0,0.9,0c0,0,0.1,0,0.1,0
			c1,0.1,1.9,0.3,2.8,0.6c1.4,0.6,2.5,1.4,3.4,2.6C15.7,4.5,15.8,4.7,16,5c0.2-0.2,0.3-0.4,0.4-0.6c0.8-1.1,1.9-1.9,3.1-2.5
			c0.8-0.4,1.7-0.6,2.6-0.8C22.4,1,22.6,1,22.9,1c0.3,0,0.6,0,0.9,0c0,0,0.1,0,0.1,0c0.7,0,1.4,0.2,2,0.4c1.9,0.6,3.4,1.8,4.5,3.4
			c0.8,1.1,1.2,2.4,1.4,3.7C31.9,8.7,32,9,32,9.2c0,0.3,0,0.6,0,0.9c0,0.3-0.1,0.6-0.1,0.9c-0.1,1.1-0.4,2.1-0.8,3.1
			c-0.5,1.2-1.2,2.2-2,3.2c-1,1.2-2.1,2.3-3.2,3.3c-1.5,1.4-3,2.7-4.5,4.1c-1.9,1.8-3.7,3.8-5.1,6C16.1,31.1,15.9,31.1,15.7,30.7z"
			/>
	</g>
</g>

</svg>