<svg xmlns="http://www.w3.org/2000/svg" version="1.1" class="staticContent" height="100%" width="100%"
	 preserveAspectRatio="none" viewBox="0 0 32 32">
	<g id="Idea">
	<path fill="#666666" d="M15.9,6L15.9,6c-0.6,0-1.1-0.5-1.1-1.1V1.1c0-0.6,0.5-1.1,1.1-1.1h0C16.5,0,17,0.5,17,1.1v3.7 C17,5.5,16.5,6,15.9,6z"/>
	<path fill="#666666" d="M22.8,7.6L22.8,7.6c-0.4-0.4-0.4-1.1,0-1.6l2.6-2.6c0.4-0.4,1.1-0.4,1.6,0l0,0c0.4,0.4,0.4,1.1,0,1.6 l-2.6,2.6C23.9,8,23.2,8,22.8,7.6z"/>
	<path fill="#666666" d="M9.1,7.6L9.1,7.6C8.6,8,7.9,8,7.5,7.6L4.9,5c-0.4-0.4-0.4-1.1,0-1.6l0,0C5.3,3,6,3,6.5,3.4L9.1,6 C9.5,6.5,9.5,7.2,9.1,7.6z"/>
	<path fill="#666666" d="M32,14.1L32,14.1c0,0.6-0.5,1.1-1.1,1.1h-3.7c-0.6,0-1.1-0.5-1.1-1.1v0c0-0.6,0.5-1.1,1.1-1.1h3.7 C31.5,13,32,13.5,32,14.1z"/>
	<path fill="#666666" d="M5.9,14.1L5.9,14.1c0,0.6-0.5,1.1-1.1,1.1H1.1c-0.6,0-1.1-0.5-1.1-1.1v0C0,13.5,0.5,13,1.1,13h3.7 C5.4,13,5.9,13.5,5.9,14.1z"/>
	<rect x="11.6" y="25.2" fill="#666666" width="8.7" height="2.1"/>
	<polygon fill="#666666" points="20.3,28.3 11.6,28.3 11.6,30.4 13.4,30.4 13.4,32 18.5,32 18.5,30.4 20.3,30.4 		"/>
	<path fill="#666666" d="M20.9,21.9c-0.5,0.4-0.7,0.9-0.7,1.5V24h-8.6v-0.7c0-0.6-0.3-1.1-0.7-1.5c-2.2-1.7-3.5-4.4-3.2-7.5
		c0.4-3.8,3.5-6.9,7.3-7.3c5-0.6,9.2,3.3,9.2,8.2C24.2,18,22.9,20.3,20.9,21.9z M15.6,9.9c-0.1-0.4-0.5-0.6-0.9-0.5
		c-0.1,0-0.3,0-0.4,0.1c-3,0.9-4,3.3-3.9,5.4c0,0.4,0.3,0.6,0.6,0.7c0.4,0,0.7-0.2,0.7-0.7c0-1,0.2-3.1,2.9-4c0.1,0,0.2,0,0.3-0.1
		C15.4,10.7,15.7,10.3,15.6,9.9z"/>
</g>

<path style="fill:none!important;stroke:none!important;pointer-events:all!important" d="M10,22 A12,12 1 1 1 22,22 v12 h-12 Z"/>
</svg>