<svg xmlns="http://www.w3.org/2000/svg" version="1.1" class="staticContent" height="100%" width="100%"
     preserveAspectRatio="none" viewBox="0 0 32 32">
    <path d="M 19.099609 2.5996094 L 19.099609 6.0996094 L 23.351562 6.0996094 L 18.917969 10.533203 C 17.206801 9.2652687 15.102291 8.5 12.800781 8.5 C 7.1007812 8.5 2.4003906 13.2 2.4003906 19 C 2.4003906 24.8 7.1007812 29.400391 12.800781 29.400391 C 18.600781 29.400391 23.199219 24.7 23.199219 19 C 23.199219 16.808626 22.516198 14.7545 21.349609 13.050781 L 26.099609 8.3007812 L 26.099609 13 L 29.599609 13 L 29.599609 2.5996094 L 29.5 2.5996094 L 19.099609 2.5996094 z M 13 11.800781 C 17 11.800781 20.199219 15 20.199219 19 C 20.199219 23 17 26.199219 13 26.199219 C 9 26.199219 5.8007813 23 5.8007812 19 C 5.8007812 15 9 11.800781 13 11.800781 z "/>

<circle style="fill:none!important;stroke:none!important;pointer-events:all!important" r="9" cx="13" cy="19" />
</svg>