<svg xmlns="http://www.w3.org/2000/svg" version="1.1" class="staticContent" height="100%" width="100%"
	 preserveAspectRatio="none" viewBox="0 0 32 32">
	<g id="Male">
	<circle fill="#666666" cx="16" cy="2.7" r="2.7"/>
	<path fill="#666666" d="M22.1,9.4c-0.3-2-2-3.6-4.1-3.6h-4c-2.1,0-3.8,1.6-4.1,3.6c0,0.1-0.1,0.7-0.1,0.7v7.3
		c0,0.7,0.5,1.2,1.2,1.2c0.7,0,1.2-0.5,1.2-1.2V10h0.4v8v0.4v12.1c0,0.8,0.7,1.5,1.5,1.5c0.8,0,1.5-0.7,1.5-1.5V18.4h0.5v12.1
		c0,0.8,0.7,1.5,1.5,1.5c0.8,0,1.5-0.7,1.5-1.5V18.4V18v-8h0.4v7.3c0,0.7,0.5,1.2,1.2,1.2s1.2-0.5,1.2-1.2V10V9.9
		C22.1,9.9,22.1,9.5,22.1,9.4z"/>
</g>

</svg>