<svg xmlns="http://www.w3.org/2000/svg" version="1.1" class="staticContent" height="100%" width="100%"
	 preserveAspectRatio="none" viewBox="0 0 32 32">
	<g id="Money_Bill">
	<path fill="#E9E9E9" d="M0,7.8v18.4h32V7.8H0z M30,24.3H2V9.7h28V24.3z"/>
	<path fill="#E9E9E9" d="M3,10.7v12.6h26V10.7H3z M18.1,20c-0.4,0.5-1.3,0.7-2.1,0.8v1.1h-1v-1.1c-1.4-0.1-2.3-0.8-2.6-2l1.6-0.4
		c0.2,0.7,0.7,1,1.5,1c0.4,0,0.7-0.1,0.9-0.2c0.2-0.1,0.3-0.3,0.3-0.6c0-0.2-0.1-0.4-0.3-0.5c-0.2-0.1-0.5-0.2-1-0.3
		c-1.1-0.2-1.8-0.5-2.1-0.9c-0.3-0.4-0.5-0.8-0.5-1.4s0.2-1.1,0.6-1.6c0.4-0.4,0.9-0.7,1.6-0.8v-0.9h1v0.9c1.2,0.1,2,0.7,2.4,1.7
		l-1.5,0.5c-0.2-0.6-0.6-0.9-1.3-0.9c-0.7,0-1,0.2-1,0.7c0,0.2,0.1,0.3,0.2,0.5c0.1,0.2,0.4,0.2,0.9,0.3c0.8,0.2,1.3,0.3,1.7,0.5
		c0.4,0.2,0.7,0.4,0.9,0.8c0.2,0.4,0.4,0.7,0.4,1.2C18.7,19,18.5,19.5,18.1,20z"/>
</g>

<rect style="fill:none!important;stroke:none!important;pointer-events:all!important" x="0" y="8" width="32" height="18"></rect>
</svg>