<svg xmlns="http://www.w3.org/2000/svg" version="1.1" class="staticContent" height="100%" width="100%"
	 preserveAspectRatio="none" viewBox="0 0 32 32">
	<g id="Money_Coin">
	<path fill="#666666" d="M16,3.9c-6.6,0-12,5.4-12,12s5.4,12,12,12s12-5.4,12-12S22.6,3.9,16,3.9z M19.6,20.1
		c-0.6,0.7-1.6,1.1-2.9,1.2V23h-1.4v-1.6c-2.1-0.2-3.4-1.2-3.8-3l2.4-0.5c0.3,1,1,1.5,2.2,1.5c0.6,0,1-0.1,1.3-0.3
		c0.3-0.2,0.4-0.5,0.4-0.8c0-0.3-0.1-0.6-0.4-0.8c-0.3-0.2-0.8-0.3-1.5-0.5c-1.6-0.3-2.7-0.8-3.2-1.4c-0.5-0.6-0.7-1.2-0.7-2
		c0-0.9,0.3-1.7,0.9-2.3c0.6-0.6,1.4-1,2.3-1.1V8.7h1.4v1.4c1.8,0.2,3,1,3.5,2.6L18,13.4c-0.3-0.9-0.9-1.3-1.9-1.3
		c-1,0-1.5,0.3-1.5,1c0,0.3,0.1,0.5,0.3,0.7s0.6,0.3,1.3,0.5c1.1,0.2,1.9,0.5,2.5,0.7c0.5,0.2,1,0.6,1.3,1.1
		c0.4,0.5,0.5,1.1,0.5,1.7C20.5,18.6,20.2,19.4,19.6,20.1z"/>
	<path fill="#666666" d="M16,0.5C7.4,0.5,0.5,7.4,0.5,16S7.4,31.5,16,31.5S31.5,24.6,31.5,16S24.6,0.5,16,0.5z M16,28.9
		c-7.2,0-13-5.8-13-13s5.8-13,13-13s13,5.8,13,13S23.2,28.9,16,28.9z"/>
</g>

<circle style="fill:none!important;stroke:none!important;pointer-events:all!important" cx="16" cy="16" r="15" />
</svg>