<svg xmlns="http://www.w3.org/2000/svg" version="1.1" class="staticContent" height="100%" width="100%"
	 preserveAspectRatio="none" viewBox="0 0 32 32">
	<g id="Moon">
	<path fill="#666666" d="M30.4,22.5c-2.4,5.3-7.7,9-13.8,9C8.3,31.5,1.5,24.6,1.5,16S8.3,0.5,16.6,0.5c1.4,0,2.8,0.2,4.1,0.6
		c-4.6,1.6-7.9,6-7.9,11.1c0,6.5,5.3,11.8,11.8,11.8C26.8,24,28.7,23.4,30.4,22.5z"/>
	<path fill="#666666" d="M26.6,2.1L26.6,2.1c0.5,2.1,2.1,3.7,4.2,4.2l0.1,0l-0.3,0.1c-1.9,0.5-3.3,2-3.8,3.9l-0.1,0.2l-0.1-0.3
		c-0.5-1.8-1.9-3.2-3.7-3.8l-0.5-0.2l0.1,0c2-0.5,3.5-2.1,4-4.1L26.6,2.1z"/>
	<path fill="#666666" d="M20,9.3L20,9.3c0.4,1.7,1.7,2.9,3.3,3.3l0,0l-0.3,0.1c-1.5,0.4-2.6,1.6-3,3.1l0,0.2L20,15.8
		c-0.4-1.4-1.5-2.6-2.9-3l-0.4-0.1l0.1,0C18.4,12.2,19.6,11,20,9.3L20,9.3z"/>
</g>

<circle style="fill:none!important;stroke:none!important;pointer-events:all!important" cx="16" cy="16" r="15" />
</svg>