<svg xmlns="http://www.w3.org/2000/svg" version="1.1" class="staticContent" height="100%" width="100%"
	 preserveAspectRatio="none" viewBox="0 0 32 32">

<g id="Neutral">
	<path fill="#666666" d="M16,0.3C7.3,0.3,0.3,7.3,0.3,16c0,8.7,7,15.7,15.7,15.7s15.7-7,15.7-15.7C31.7,7.3,24.7,0.3,16,0.3z
		M16,29.4c-7.4,0-13.4-6-13.4-13.4c0-7.4,6-13.4,13.4-13.4s13.4,6,13.4,13.4C29.4,23.4,23.4,29.4,16,29.4z"/>
	<circle fill="#666666" cx="12" cy="12.7" r="1.8"/>
	<circle fill="#666666" cx="20.3" cy="12.7" r="1.8"/>
	<path fill="#666666" d="M21.4,22.8h-9.9c-0.7,0-1.2-0.5-1.2-1v0c0-0.6,0.6-1,1.2-1h9.9c0.7,0,1.2,0.5,1.2,1v0
		C22.6,22.4,22.1,22.8,21.4,22.8z"/>
</g>

<circle style="fill:none!important;stroke:none!important;pointer-events:all!important" cx="16" cy="16" r="15" />
</svg>