<svg xmlns="http://www.w3.org/2000/svg" version="1.1" class="staticContent" height="100%" width="100%"
	 preserveAspectRatio="none" viewBox="0 0 32 32">

<g id="Piggy_bank">
	<path fill="#666666" d="M31.4,9.4c-0.3,0.3-0.7,0.4-1.1,0.5c0.2-1.1-0.4-2.7-1.7-2.3c-1.2,0.3-1,2-0.3,2.6
		c0.2,0.2,0.5,0.3,0.8,0.4c-0.1,0.1-0.1,0.1-0.2,0.2c-0.2,0.2-0.5,0.3-0.8,0.4c-0.9-2-3.7-5.9-10.4-6.4c0,0-4.5-0.6-8.4,1.1
		c0,0-5.1-0.8-7.6,0.9c0,0-0.2,2.1,2.7,3.5c0,0-1.5,1.6-1.5,2.8c0,0-0.1,1.3-0.8,1.6c0,0-0.6,0.5-1,0.6c0,0-1.3-0.2-1.3,0.9
		c0,0-0.3,3.4,2.5,4.7c0,0,1,0.3,1.7,0.3c0,0,1.3,2.3,3.4,3.3v3h3.6c0,0,1.1-0.5,1.5-2c0,0,4.4,0.4,5.6-0.1v2.1h3.9
		c0,0,4.2-4.3,5.8-8.1c0,0,1.4-2.4,0.6-7.1c0,0-0.1-0.2-0.2-0.5c0.6-0.2,1.2-0.6,1.5-1.1c0.8,0,1.5-0.2,1.9-0.7
		C32.2,9.5,31.7,9,31.4,9.4z M4.9,15.1c-0.5,0-0.8-0.4-0.8-0.8s0.4-0.8,0.8-0.8c0.5,0,0.8,0.4,0.8,0.8S5.3,15.1,4.9,15.1z
		M18.4,19.5c-0.4,0.5-1.1,0.8-1.9,0.8v1.1h-0.9v-1.1c-1.4-0.1-2.3-0.8-2.6-2l1.6-0.4c0.2,0.7,0.7,1,1.5,1c0.4,0,0.7-0.1,0.9-0.2
		s0.3-0.3,0.3-0.6c0-0.2-0.1-0.4-0.3-0.5s-0.5-0.2-1-0.3c-1.1-0.2-1.8-0.5-2.1-0.9c-0.3-0.4-0.5-0.8-0.5-1.4c0-0.6,0.2-1.1,0.6-1.6
		c0.4-0.4,0.9-0.7,1.6-0.8v-0.9h0.9v0.9c1.2,0.1,2,0.7,2.4,1.7L17.4,15c-0.2-0.6-0.6-0.9-1.3-0.9c-0.7,0-1,0.2-1,0.7
		c0,0.2,0.1,0.3,0.2,0.5s0.4,0.2,0.9,0.3c0.8,0.2,1.3,0.3,1.7,0.5c0.4,0.2,0.7,0.4,0.9,0.8s0.4,0.7,0.4,1.2
		C19,18.5,18.8,19,18.4,19.5z M20.1,8c0,0-3.5-2.1-8.1,0l-0.5-0.8c0,0,4.5-2.3,9,0L20.1,8z M29.5,9.8c-0.4-0.1-0.9-0.2-1-0.7
		c0-0.1,0-0.2,0-0.2c0.3-0.8,0.7-0.5,0.8-0.3C29.5,8.9,29.6,9.3,29.5,9.8z"/>
</g>
<circle style="fill:none!important;stroke:none!important;pointer-events:all!important" cx="16" cy="16" r="13" />
	</svg>