<svg xmlns="http://www.w3.org/2000/svg" version="1.1" class="staticContent" height="100%" width="100%"
     preserveAspectRatio="none" viewBox="0 0 32 32">

    <g id="Rain">
        <g>
            <path fill="#666666" d="M32,12.9c0-4.2-3.4-7.5-7.5-7.5c-0.6,0-1.2,0.1-1.7,0.2C21.3,2.3,18,0,14.2,0c-5,0-9,3.9-9.2,8.8
			c-2.8,0.4-5,2.8-5,5.8c0,3.2,2.6,5.9,5.9,5.9h19v0C28.8,20.3,32,17,32,12.9z"/>
            <path fill="#666666"
                  d="M9.8,21.5c0,0-2.6,3.8-2.1,5.5c0.5,1.6,2.1,1.4,2.1,1.4s1.5,0.1,2.1-1.4C12.4,25.3,9.8,21.5,9.8,21.5z"/>
            <path fill="#666666"
                  d="M16,25c0,0-2.6,3.8-2.1,5.5C14.5,32.1,16,32,16,32s1.5,0.1,2.1-1.4C18.6,28.8,16,25,16,25z"/>
            <path fill="#666666"
                  d="M22.2,21.7c0,0-2.6,3.8-2.1,5.5c0.5,1.6,2.1,1.4,2.1,1.4s1.5,0.1,2.1-1.4C24.8,25.5,22.2,21.7,22.2,21.7z"
            />
        </g>
    </g>
</svg>
