<svg xmlns="http://www.w3.org/2000/svg" version="1.1" class="staticContent" height="100%" width="100%"
     preserveAspectRatio="none" viewBox="0 0 32 32">

    <g id="Shake_Hand">
        <path fill="#666666" d="M12.4,11c-0.5,0.4-0.9,0.5-1.4,0.6c-0.6,0.2-1.6,0-1.9-0.5c0-0.1-0.1-0.2-0.1-0.3c0-0.1,0-0.2,0.1-0.3
		c0.4-0.7,0.7-1.5,1.1-2.1c1.4-2.2,3.9-3.8,5.4-4.6c0.4-0.2,1.7-0.3,2.3-0.1c2.1,0.5,4.8,1.5,5.3,1.7C24.7,6,25,6.7,25.3,7.6
		c1,3,1.3,4.3,2.3,7.3c0.2,0.5,0.9,3.1-0.6,2.1c-2.8-2.1-5.4-4.3-8.2-6.5c-0.6-0.5-1.2-0.9-1.7-1.3c-0.9-0.7-1.4-0.6-2.5-0.2
		C14,9.3,12.6,10.9,12.4,11z"/>
        <path fill="#666666"
              d="M4.8,23.1L4.8,23.1c-0.7-0.3-0.9-1.1-0.6-1.8L5,19.5c0.3-0.7,1.1-0.9,1.8-0.6l0,0c0.7,0.3,0.9,1.1,0.6,1.8 l-0.9,1.8C6.2,23.2,5.4,23.4,4.8,23.1z"/>
        <path fill="#666666"
              d="M7,25.6L7,25.6c-0.7-0.3-0.9-1.1-0.6-1.8l1.4-3.1c0.3-0.7,1.1-0.9,1.8-0.6l0,0c0.7,0.3,0.9,1.1,0.6,1.8 L8.7,25C8.4,25.6,7.6,25.9,7,25.6z"/>
        <path fill="#666666"
              d="M9.7,27L9.7,27c-0.7-0.3-0.9-1.1-0.6-1.8l1.4-2.9c0.3-0.7,1.1-0.9,1.8-0.6l0,0c0.7,0.3,0.9,1.1,0.6,1.8 l-1.4,2.9C11.2,27,10.4,27.3,9.7,27z"/>
        <path fill="#666666"
              d="M12.7,28.2L12.7,28.2c-0.7-0.3-0.9-1.1-0.6-1.8l0.7-1.5c0.3-0.7,1.1-0.9,1.8-0.6l0,0 c0.7,0.3,0.9,1.1,0.6,1.8l-0.7,1.5C14.2,28.3,13.4,28.5,12.7,28.2z"/>
        <path fill="#666666" d="M25.2,17.8L25.2,17.8l-0.1-0.1l0,0l-4.2-3.4c0,0-4.1-3.3-4.6-3.7c-0.7-0.5-1.5-0.3-2.1,0.3
		c-0.3,0.4-0.7,0.8-1.1,1.1c-1,1.1-2,1.1-3.3,1.2c-0.2,0-0.3,0-0.4-0.1c-1.1-0.2-1.7-0.9-1.7-2.1c0-0.1,0.6-1.9,1-2.6
		s1.4-2.2,1.4-2.2c-1.8,0-2.7,1.2-3,2c-0.3,0.8-2,4.5-2.9,6.8c-0.2,0.5-0.8,2.4,0,3.3c0.4,0.5,0,0,0.5,0.5c0.1-0.1,0,0,0.1-0.1
		c0.4-0.6,1-0.9,1.6-1c0.8-0.1,1.6,0.3,2,1c0.1,0.2,0.2,0.2,0.4,0.1c0.6-0.1,1.1,0,1.6,0.4c0.5,0.3,0.7,0.8,0.9,1.3
		c0.2,0,0.4,0,0.5-0.1c1.2,0,2.3,0.9,2.4,2.2c0,0.4,0.2,0.6,0.6,0.8c1.2,0.5,1.7,1.9,1.3,3.1c-0.1,0.3-0.3,0.6-0.4,0.9
		c0.5,0.4,1.3,0.4,1.8-0.2l0.6-0.7c0.4-0.5,0.4-1.1,0-1.5c0,0,0.1,0.1,0.1,0.1l0,0c0.6,0.5,1.2,0.5,1.8-0.1l0.7-0.7
		c0.3-0.4,0.3-1.1,0-1.5c0.5,0.3,1.4,0.3,1.8-0.2l0.6-0.7c0.4-0.4,0.3-1.1,0-1.6c0.5,0.4,1.4,0.4,1.8-0.1l0.6-0.7c0,0,0-0.1,0-0.1
		l0.1-0.1C26,19,25.7,18.3,25.2,17.8z"/>
        <path fill="#666666"
              d="M31.1,15.9l-0.8,0.2c-0.6,0.2-1.2-0.2-1.3-0.7l-2.4-8.9c-0.2-0.6,0.2-1.2,0.7-1.3L28.1,5 c0.6-0.2,1.2,0.2,1.3,0.7l2.4,8.9C32,15.2,31.7,15.8,31.1,15.9z"/>
        <path fill="#666666"
              d="M1.6,15.9l-0.8-0.3c-0.6-0.2-0.8-0.8-0.6-1.4l3.2-8.6C3.6,5.1,4.2,4.8,4.7,5l0.8,0.3 c0.6,0.2,0.8,0.8,0.6,1.4l-3.2,8.6C2.7,15.8,2.1,16.1,1.6,15.9z"/>
    </g>

    <circle style="fill:none!important;stroke:none!important;pointer-events:all!important" r="15" cx="16"
            cy="16"></circle>
</svg>