<svg xmlns="http://www.w3.org/2000/svg" version="1.1" class="staticContent" height="100%" width="100%"
     preserveAspectRatio="none" viewBox="0 0 32 32">

    <g id="Ship">
        <path fill="#666666" d="M5.1,15.7c0-0.3,0-0.5,0-0.7c0-1.7,0-3.3,0-5c0-0.5,0.1-0.6,0.6-0.6c6.9,0,13.9,0,20.8,0
		c0.3,0,0.6,0,0.6,0.4c0,1.8,0,3.7,0,5.5c0,0.1,0,0.2-0.1,0.4c-0.7-0.3-1.3-0.5-1.9-0.8c-2.9-1.2-5.8-2.4-8.6-3.5
		c-0.2-0.1-0.5-0.1-0.6,0c-3.1,1.3-6.2,2.6-9.4,3.9C5.9,15.4,5.5,15.5,5.1,15.7z"/>
        <path fill="#666666" d="M18.4,0C18.8,0,19,0.1,19,0.5c0,0.7,0,0.4,0,1.1c0,0.4-0.2,0.5-0.6,0.5c-1.6,0-3.2,0-4.9,0
		C13.2,2.1,13,2,13,1.6c0-0.7,0-0.4,0-1.1C13,0.1,13.1,0,13.6,0C14.4,0,17.7,0,18.4,0z"/>
        <path fill="#666666" d="M23.3,8.2H8.6C8.3,8.2,8.1,8,8.1,7.7V5.2c0-1,0.8-1.9,1.9-1.9h12c1,0,1.9,0.8,1.9,1.9v2.5
		C23.8,8,23.6,8.2,23.3,8.2z M13.4,6V5.2c0-0.3-0.3-0.6-0.6-0.6h-2.1c-0.3,0-0.6,0.3-0.6,0.6V6c0,0.3,0.3,0.6,0.6,0.6h2.1
		C13.2,6.5,13.4,6.3,13.4,6z M17.6,6V5.2c0-0.3-0.3-0.6-0.6-0.6h-2.1c-0.3,0-0.6,0.3-0.6,0.6V6c0,0.3,0.3,0.6,0.6,0.6h2.1
		C17.4,6.5,17.6,6.3,17.6,6z M21.8,6V5.2c0-0.3-0.3-0.6-0.6-0.6h-2.1c-0.3,0-0.6,0.3-0.6,0.6V6c0,0.3,0.3,0.6,0.6,0.6h2.1
		C21.6,6.5,21.8,6.3,21.8,6z"/>
        <path fill="#666666" d="M30,19c-1.6-0.7-3.3-1.3-4.9-2c-2.6-1.1-5.2-2.1-7.8-3.2c-0.4-0.2-0.5-0.1-0.5,0.3
		c-0.1,2.4-0.3,4.7-0.4,7.1c-0.1,1.2-0.1,2.4-0.2,3.7c0,0.1,0,0.2-0.1,0.2c-0.1-0.1-0.1-0.2-0.1-0.2c-0.1-1.2-0.2-2.4-0.2-3.7
		c-0.1-2.4-0.3-4.7-0.4-7.1c0-0.4-0.2-0.4-0.5-0.3c-2.6,1.1-5.2,2.2-7.8,3.2c-1.6,0.7-3.3,1.4-4.9,2c-0.3,0.1-0.6,0.3-0.4,0.7
		c0.4,1,0.8,2.1,1.4,3.1c1.7,3.3,3.9,6.2,6.6,8.8c0.3,0.2,0.7,0.4,1,0.5c0.1,0,0.2,0,0.2,0v0h0c0.3,0,0.6,0,0.9,0H16h0h4.3
		c0.3,0,0.6,0,0.9,0h0v0c0.1,0,0.2,0,0.2,0c0.4-0.1,0.8-0.2,1-0.5c2.7-2.6,4.9-5.5,6.6-8.8c0.5-1,0.9-2,1.4-3.1
		C30.6,19.2,30.3,19.1,30,19z"/>
    </g>

    <rect style="fill:none!important;stroke:none!important;pointer-events:all!important" x="2" y="0" width="28"
          height="32"/>
</svg>