<svg xmlns="http://www.w3.org/2000/svg" version="1.1" class="staticContent" height="100%" width="100%"
     preserveAspectRatio="none" viewBox="0 0 32 32">

    <g id="ShoppingCart">
        <path fill="#666666" d="M28.8,20.6l2.7-13L6.3,4.3L4.3,3c0-0.1,0.1-0.3,0.1-0.4c0-1.1-0.9-1.9-1.9-1.9c-1.1,0-1.9,0.9-1.9,1.9
		c0,1.1,0.9,1.9,1.9,1.9c0.1,0,0.3-0.1,0.4-0.1L5.2,6l3.9,15.5l1.2,0l-1.1,3.4c0,0-0.1,0-0.1,0c-1.8,0-3.3,1.5-3.3,3.3
		c0,1.8,1.5,3.3,3.3,3.3c1.4,0,2.5-0.8,3-2h10.5c0.5,1.2,1.6,2,3,2c1.8,0,3.2-1.4,3.2-3.2c0-1.8-1.4-3.2-3.2-3.2
		c-1.5,0-2.8,1.1-3.1,2.5H12.4c-0.2-0.8-0.6-1.5-1.3-2l1.3-4.1L28.8,20.6z M15.6,18.9c-0.7,0-1.2-0.5-1.2-1.2
		c0-0.7,0.5-1.2,1.2-1.2c0.7,0,1.2,0.5,1.2,1.2C16.8,18.3,16.3,18.9,15.6,18.9z M19.6,18.9c-0.7,0-1.2-0.5-1.2-1.2
		c0-0.7,0.5-1.2,1.2-1.2c0.7,0,1.2,0.5,1.2,1.2C20.8,18.3,20.2,18.9,19.6,18.9z M23.6,18.9c-0.7,0-1.2-0.5-1.2-1.2
		c0-0.7,0.5-1.2,1.2-1.2c0.7,0,1.2,0.5,1.2,1.2C24.8,18.3,24.2,18.9,23.6,18.9z M27.5,8.5c0.7,0,1.2,0.5,1.2,1.2
		c0,0.7-0.5,1.2-1.2,1.2c-0.7,0-1.2-0.5-1.2-1.2C26.4,9.1,26.9,8.5,27.5,8.5z M26.7,13.7c0,0.7-0.5,1.2-1.2,1.2
		c-0.7,0-1.2-0.5-1.2-1.2c0-0.7,0.5-1.2,1.2-1.2C26.2,12.5,26.7,13,26.7,13.7z M23.6,8.5c0.7,0,1.2,0.5,1.2,1.2
		c0,0.7-0.5,1.2-1.2,1.2c-0.7,0-1.2-0.5-1.2-1.2C22.4,9.1,22.9,8.5,23.6,8.5z M22.8,13.7c0,0.7-0.5,1.2-1.2,1.2
		c-0.7,0-1.2-0.5-1.2-1.2c0-0.7,0.5-1.2,1.2-1.2C22.2,12.5,22.8,13,22.8,13.7z M19.6,8.5c0.7,0,1.2,0.5,1.2,1.2
		c0,0.7-0.5,1.2-1.2,1.2c-0.7,0-1.2-0.5-1.2-1.2C18.4,9.1,18.9,8.5,19.6,8.5z M18.8,13.7c0,0.7-0.5,1.2-1.2,1.2
		c-0.7,0-1.2-0.5-1.2-1.2c0-0.7,0.5-1.2,1.2-1.2C18.3,12.5,18.8,13,18.8,13.7z M15.6,8.5c0.7,0,1.2,0.5,1.2,1.2
		c0,0.7-0.5,1.2-1.2,1.2c-0.7,0-1.2-0.5-1.2-1.2C14.4,9.1,15,8.5,15.6,8.5z M14.8,13.7c0,0.7-0.5,1.2-1.2,1.2
		c-0.7,0-1.2-0.5-1.2-1.2c0-0.7,0.5-1.2,1.2-1.2C14.3,12.5,14.8,13,14.8,13.7z M10.4,9.7c0-0.7,0.5-1.2,1.2-1.2
		c0.7,0,1.2,0.5,1.2,1.2c0,0.7-0.5,1.2-1.2,1.2C11,10.9,10.4,10.4,10.4,9.7z"/>
    </g>

    <rect style="fill:none!important;stroke:none!important;pointer-events:all!important" x="2" y="2" width="28"
          height="28"/>
</svg>