<svg xmlns="http://www.w3.org/2000/svg" version="1.1" class="staticContent" height="100%" width="100%"
     preserveAspectRatio="none" viewBox="0 0 32 32">

    <g id="StackofPaper">
        <path fill="#666666" d="M18.4,4.7l9.7,4.9l-9,5c-0.6,0.3-1.3,0.2-1.8-0.2l-2.9-2.4c-0.3-0.2-0.6-0.2-0.9,0l-3.3,2.4
		c-0.5,0.4-1.2,0.4-1.8,0.1L3.8,12L18.4,4.7 M19.6,16.8L31,10.6c0.8-0.4,0.8-1.6,0-2l-12.1-6c-0.2-0.1-0.3-0.1-0.5-0.1l0,0
		c-0.2,0-0.3,0-0.5,0.1L1,10.9c-0.8,0.4-0.8,1.6,0,2l6.9,3.8c0.3,0.2,0.6,0.2,1,0.2l9.8,0C19,17,19.3,16.9,19.6,16.8z"/>
        <path fill="#666666" d="M13.9,24.5c-0.2,0-0.4-0.1-0.6-0.2l-12.5-7c-0.6-0.3-0.8-1.1-0.5-1.6s1.1-0.8,1.6-0.5l11.9,6.7l16-8.4
		c0.6-0.3,1.3-0.1,1.6,0.5c0.3,0.6,0.1,1.3-0.5,1.6l-16.6,8.7C14.3,24.4,14.1,24.5,13.9,24.5z"/>
        <path fill="#666666" d="M13.9,29.6c-0.2,0-0.4-0.1-0.6-0.2L0.8,22.1c-0.6-0.3-0.8-1.1-0.4-1.6C0.7,19.9,1.5,19.7,2,20L14,27
		l16-8.7c0.6-0.3,1.3-0.1,1.6,0.5c0.3,0.6,0.1,1.3-0.5,1.6l-16.6,9C14.3,29.6,14.1,29.6,13.9,29.6z"/>
        <polygon fill="#666666" points="23.9,10 17.4,6.8 15.9,7.5 22.2,10.9"/>
        <polygon fill="#666666" points="20.7,11.7 14.4,8.4 12.8,9.2 18.8,12.6"/>
    </g>

    <polygon style="fill:none!important;stroke:none!important;pointer-events:all!important"
             points="0,12 18,3 32,10 32,20 14,30 0,22"></polygon>
</svg>