<svg xmlns="http://www.w3.org/2000/svg" version="1.1" class="staticContent" height="100%" width="100%"
	 preserveAspectRatio="none" viewBox="0 0 32 32">

<g id="StickyNote1">
	<path d="M 18.800781 0 C 18.600781 0 18.399219 0.09921875 18.199219 0.19921875 C 17.999219 0.39921875 17.800781 0.6 17.800781 1 C 17.800781 1.3 17.8 1.6003906 18 1.9003906 C 18 2.0003906 18.099609 1.9996094 18.099609 2.0996094 C 18.099609 2.0996094 18.099219 2.1992188 18.199219 2.1992188 L 18.300781 2.3007812 L 18.400391 2.4003906 L 18.5 2.5 L 18.599609 2.5 C 18.699609 2.5 18.700781 2.5996094 18.800781 2.5996094 C 19.000781 2.6996094 19.200391 2.6992188 19.400391 2.6992188 C 19.600391 2.6992188 19.8 2.6 20 2.5 C 20.4 2.1 20.4 1.2992188 20 0.69921875 C 19.7 0.29921875 19.300781 -1.4802974e-16 18.800781 0 z M 16.916016 1.2597656 C 16.644141 1.2503906 16.399609 1.3253906 16.099609 1.4003906 C 15.199609 1.9003906 14.900391 3 15.400391 4 C 15.900391 5 17.000391 5.4 17.900391 5 C 18.500391 4.7 18.800781 4.1003906 18.800781 3.4003906 C 18.500781 3.6003906 18 4 17.5 4 C 17.1 4 16.799609 3.8003906 16.599609 3.4003906 C 16.399609 3.1003906 16.300391 2.7 16.400391 2.5 C 16.500391 2.1 16.799219 1.7003906 17.199219 1.4003906 L 17.199219 1.3007812 C 17.099219 1.2757813 17.006641 1.2628906 16.916016 1.2597656 z M 17.400391 2.0996094 C 17.300391 2.2996094 17.099609 2.4996094 17.099609 2.5996094 L 17.099609 2.6992188 C 17.099609 2.7992188 17.099219 2.9 17.199219 3 C 17.299219 3.2 17.499609 3.3007813 17.599609 3.3007812 L 17.699219 3.3007812 C 17.799219 3.3007812 17.999219 3.1996094 18.199219 3.0996094 L 18.300781 3 C 18.000781 2.8 17.799609 2.6003906 17.599609 2.4003906 C 17.499609 2.3003906 17.500391 2.1996094 17.400391 2.0996094 z M 30.099609 2.4003906 L 20.599609 2.5996094 C 20.499609 2.7996094 20.500781 2.9 20.300781 3 L 20.099609 3 C 20.099609 3.1 20.000391 3.0996094 19.900391 3.0996094 L 19.900391 3.1992188 L 19.900391 3.4003906 L 19.900391 3.5 L 20.099609 3.5 L 20.099609 3.4003906 L 29.199219 3.1992188 L 29.400391 29.699219 C 23.400391 29.899219 16.500391 29.9 11.400391 30 C 7.6003906 30 4.6003906 29.999609 3.4003906 30.099609 C 3.0003906 25.499609 2.6992188 7.7992187 2.6992188 3.6992188 L 14.400391 3.5996094 L 14.400391 3.0996094 L 14.400391 2.6992188 L 1.8007812 2.9003906 L 1.8007812 3.3007812 C 1.8007812 4.6007812 1.8003906 8.7996094 1.9003906 13.599609 C 1.7003906 20.499609 1.5996094 30.9 1.5996094 32 C 5.4996094 32 15.099219 31.099219 21.699219 30.699219 C 24.499219 30.699219 27.3 30.6 30 30.5 L 30.400391 30.5 L 30.099609 2.4003906 z "/>
</g>

<rect style="fill:none!important;stroke:none!important;pointer-events:all!important" x="2" y="2" width="28" height="28"/>
	</svg>