<svg xmlns="http://www.w3.org/2000/svg" version="1.1" class="staticContent" height="100%" width="100%"
	 preserveAspectRatio="none" viewBox="0 0 32 32">

<g id="StickyNote2">
	<path d="M 0 0 L 0 32 L 0.59960938 32 C 13.699609 32 19.7 31.800391 31.5 29.400391 L 32 29.300781 L 32 28.599609 L 32 0 L 0 0 z M 1.1992188 1.1992188 L 30.800781 1.1992188 L 30.800781 26.339844 C 30.514661 25.973627 30.198959 25.626563 29.800781 25.300781 L 29.400391 25 L 29 25.300781 C 25.1 28.400781 19.599219 30.199609 12.699219 30.599609 L 12.699219 30.603516 C 9.3350245 30.758385 5.6920121 30.800781 1.1992188 30.800781 L 1.1992188 1.1992188 z M 29.400391 26.599609 C 29.939281 27.061516 30.29772 27.64478 30.572266 28.34375 C 28.234667 28.800263 26.136024 29.162175 24.142578 29.466797 C 26.100455 28.688239 27.856973 27.728939 29.400391 26.599609 z "/>
</g>

<rect style="fill:none!important;stroke:none!important;pointer-events:all!important" x="0" y="0" width="32" height="32"/>
	</svg>