<svg xmlns="http://www.w3.org/2000/svg" version="1.1" class="staticContent" height="100%" width="100%"
	 preserveAspectRatio="none" viewBox="0 0 32 32">

<g id="Sunny">
	<circle fill="#5D5D5D" cx="16" cy="16" r="7.6"/>
	<path fill="#5D5D5D" d="M16,6.9c0.6,0,1.1-0.5,1.1-1.1V1.1C17.1,0.5,16.6,0,16,0c-0.6,0-1.1,0.5-1.1,1.1v4.6C14.9,6.4,15.4,6.9,16,6.9z"/>
	<path fill="#5D5D5D" d="M16,25.1c-0.6,0-1.1,0.5-1.1,1.1v4.6c0,0.6,0.5,1.1,1.1,1.1c0.6,0,1.1-0.5,1.1-1.1v-4.6C17.1,25.6,16.6,25.1,16,25.1z"/>
	<path fill="#5D5D5D" d="M30.9,14.9h-4.6c-0.6,0-1.1,0.5-1.1,1.1c0,0.6,0.5,1.1,1.1,1.1h4.6c0.6,0,1.1-0.5,1.1-1.1C32,15.4,31.5,14.9,30.9,14.9z"/>
	<path fill="#5D5D5D" d="M6.9,16c0-0.6-0.5-1.1-1.1-1.1H1.1C0.5,14.9,0,15.4,0,16c0,0.6,0.5,1.1,1.1,1.1h4.6C6.4,17.1,6.9,16.6,6.9,16z"/>
	<path fill="#5D5D5D" d="M24,22.5c-0.2-0.2-0.5-0.3-0.8-0.3c-0.3,0-0.6,0.1-0.8,0.3l0,0l0,0c0,0,0,0,0,0l0,0
		c-0.2,0.2-0.3,0.5-0.3,0.8c0,0.3,0.1,0.6,0.3,0.8l3.3,3.3c0.2,0.2,0.5,0.3,0.8,0.3c0.3,0,0.6-0.1,0.8-0.3c0.2-0.2,0.3-0.5,0.3-0.8
		c0-0.3-0.1-0.6-0.3-0.8L24,22.5z"/>
	<path fill="#5D5D5D" d="M4.7,6.3L8,9.5c0.2,0.2,0.5,0.3,0.8,0.3c0.3,0,0.6-0.1,0.8-0.3C9.7,9.3,9.9,9,9.9,8.7
		c0-0.3-0.1-0.6-0.3-0.8L6.3,4.7C6,4.5,5.8,4.4,5.5,4.4c-0.3,0-0.6,0.1-0.8,0.3l0,0c0,0,0,0,0,0l0,0l0,0C4.5,4.9,4.4,5.2,4.4,5.5
		C4.4,5.8,4.5,6,4.7,6.3z"/>
	<path fill="#5D5D5D" d="M8.7,22.1c-0.3,0-0.6,0.1-0.8,0.3l-3.3,3.3c-0.2,0.2-0.3,0.5-0.3,0.8c0,0.3,0.1,0.6,0.3,0.8
		c0.2,0.2,0.5,0.3,0.8,0.3c0.3,0,0.6-0.1,0.8-0.3L9.5,24c0.2-0.2,0.3-0.5,0.3-0.8c0-0.3-0.1-0.6-0.3-0.8C9.3,22.3,9,22.1,8.7,22.1z"/>
	<path fill="#5D5D5D" d="M23.3,9.9c0.3,0,0.6-0.1,0.8-0.3l3.3-3.3c0.2-0.2,0.3-0.5,0.3-0.8c0-0.3-0.1-0.6-0.3-0.8
		c-0.2-0.2-0.5-0.3-0.8-0.3c-0.3,0-0.6,0.1-0.8,0.3L22.5,8c-0.2,0.2-0.3,0.5-0.3,0.8c0,0.3,0.1,0.6,0.3,0.8
		C22.7,9.7,23,9.9,23.3,9.9z"/>
</g>

<circle style="fill:none!important;stroke:none!important;pointer-events:all!important" cx="16" cy="16" r="14" />
	</svg>