<svg xmlns="http://www.w3.org/2000/svg" version="1.1" class="staticContent" height="100%" width="100%"
	 preserveAspectRatio="none" viewBox="0 0 32 32">

<g id="Target">
	<path fill="#666666" d="M18.8,14.5l5-5l1.9-0.1l5.8-5.8l-3.1,0l0-3.1l-5.8,5.8l0,2l-5,5c-1.2-0.7-2.7-0.5-3.8,0.5
		c-1.2,1.2-1.2,3.2,0,4.4c1.2,1.2,3.2,1.2,4.4,0C19.3,17.2,19.5,15.7,18.8,14.5z"/>
	<path fill="#666666" d="M23.9,11.3l-1.8,1.8c1.2,2.5,0.8,5.6-1.3,7.6c-2.6,2.6-6.9,2.6-9.5,0c-2.6-2.6-2.6-6.9,0-9.5
		c2.1-2.1,5.2-2.5,7.7-1.3l1.8-1.8c-3.5-2.1-8.2-1.7-11.2,1.4C6,13.1,6,18.9,9.6,22.5c3.6,3.6,9.4,3.6,13,0
		C25.5,19.5,26,14.9,23.9,11.3z"/>
	<path fill="#666666" d="M29.1,7.7l-1.9,1.9c2.8,4.9,2.1,11.4-2.1,15.6c-5.1,5.1-13.3,5.1-18.3,0S1.7,12,6.7,6.9
		C11,2.7,17.5,2,22.4,4.9L24.3,3C18.4-0.9,10.3-0.2,5,5.1c-6,6-6.1,15.8,0,21.9c6,6,15.9,6,21.9,0C32.2,21.7,32.9,13.7,29.1,7.7z"/>
</g>

<circle style="fill:none!important;stroke:none!important;pointer-events:all!important" cx="16" cy="16" r="15" />
	</svg>