<svg xmlns="http://www.w3.org/2000/svg" version="1.1" class="staticContent" height="100%" width="100%"
	 preserveAspectRatio="none" viewBox="0 0 32 32">

<g id="Thumbs_down">
	<path fill="#5D5D5D" d="M-558.2,438v10.8c0,1,0.8,1.9,1.9,1.9h1.9c1,0,1.9-0.8,1.9-1.9V438c0-1.1-0.9-1.9-2-1.9h-1.8 C-557.4,436.1-558.3,436.9-558.2,438z"/>
	<path fill="#5D5D5D" d="M-581.5,451v1.2c0,0.9,0.6,1.6,1.5,1.7l0,0h0.2l0,0h7.2v1.3l0,0c-0.5,2.2-1,4.4-0.7,6.7
		c0.2,1.6,0.7,3,2,4.1c1.1,0.9,2.4,0.5,2.8-0.8c0.1-0.3,0.2-0.6,0.2-0.9c0.2-1.3,0.3-2.5,0.6-3.7c0.9-3,3.4-5.5,5.8-7.5
		c0.4-0.3,0.7-0.6,1-1c1-1.4,1.3-3.1,1.3-4.8v-7.2c-0.1-1.7-0.8-3.1-2.4-3.9c-1.1-0.6-3.4-0.7-5.2-0.7h-10.9l0,0h-0.1l0,0
		c-0.9,0-1.7,0.8-1.7,1.7v1.2c0,0.7,0.6,1.4,1.3,1.6c-0.1,0-0.1,0-0.2,0l0,0c-1,0-1.5,0.6-1.5,1.8l-0.1,1.4c0,0.7,0.4,1.3,1,1.5
		c-0.9,0.1-1.6,0.8-1.6,1.7v1.2c0,0.7,0.4,1.3,1.1,1.6C-580.8,449.4-581.5,450.1-581.5,451z"/>
</g>

<rect style="fill:none!important;stroke:none!important;pointer-events:all!important" x="-563" y="436" width="8" height="16" />
	</svg>