<svg xmlns="http://www.w3.org/2000/svg" version="1.1" class="staticContent" height="100%" width="100%"
	 preserveAspectRatio="none" viewBox="0 0 32 32">

<g id="Thumbs_up">
	<path fill="#5D5D5D" d="M-572.7,439.6c0.2-1.5,0.7-3,2-4c1.1-0.9,2.4-0.5,2.8,0.8c0.1,0.3,0.2,0.6,0.2,0.9
		c0.2,1.2,0.3,2.4,0.6,3.6c0.9,3,3.3,5.4,5.7,7.4c0.4,0.3,0.7,0.6,1,1c1,1.5,1.3,3.1,1.3,4.8v7.1c-0.1,1.7-0.7,3.4-2.2,4.3
		c-1.3,0.8-3.3,0.7-5.1,0.7h-1.8c0.3-0.4,0.6-0.7,0.6-1.4v-1.3c0-0.8-0.4-1.5-1.1-1.9c0.4-0.4,0.7-1,0.7-1.6v-1.3
		c0-0.7-0.4-1.3-0.9-1.7c0.6-0.4,0.9-1,0.9-1.7V454c0-0.9-0.4-1.7-1.2-2c0.5-0.4,0.7-1,0.7-1.7V449c0-1.2-1-2.4-2.2-2.4h-1.3
		C-572.5,444.4-573,442.3-572.7,439.6z"/>
	<path fill="#5D5D5D" d="M-580.7,450.3v-1.1c0-0.8,0.7-1.5,1.5-1.5h7.9c0.8,0,1.5,0.7,1.5,1.5v1.1c0,0.8-0.7,1.5-1.5,1.5h-7.9 C-580,451.8-580.7,451.1-580.7,450.3z"/>
	<path fill="#5D5D5D" d="M-581.8,455.3v-1.1c0-0.8,0.7-1.5,1.5-1.5h8.6c0.8,0,1.5,0.7,1.5,1.5v1.1c0,0.8-0.7,1.5-1.5,1.5h-8.6 C-581.2,456.8-581.9,456.1-581.8,455.3z"/>
	<path fill="#5D5D5D" d="M-580.9,460.2V459c0-0.8,0.7-1.5,1.5-1.5h8c0.8,0,1.5,0.7,1.5,1.5v1.2c0,0.8-0.7,1.5-1.5,1.5h-8 C-580.2,461.7-580.9,461-580.9,460.2z"/>
	<path fill="#5D5D5D" d="M-579.8,465v-1.1c0-0.8,0.6-1.3,1.4-1.3h7.9c0.8,0,1.4,0.6,1.4,1.4v1.1c0,0.9-0.6,1.3-1.4,1.3h-7.9 C-579.3,466.4-579.8,465.8-579.8,465z"/>
	<path fill="#5D5D5D" d="M-558,463.6v-10.7c0-1,0.8-1.9,1.9-1.9h1.9c1,0,1.9,0.8,1.9,1.9v10.7c0,1-0.8,1.9-1.9,1.9h-1.9 C-557.1,465.5-558,464.7-558,463.6z"/>
</g>

<circle style="fill:none!important;stroke:none!important;pointer-events:all!important" r="14" cx="-568" cy="453" />
	</svg>