<svg xmlns="http://www.w3.org/2000/svg" version="1.1" class="staticContent" height="100%" width="100%"
	 preserveAspectRatio="none" viewBox="0 0 32 32">

<g id="Tool">
	<g>
		<path fill="#666666" d="M31.5,6l-4.2,4.2l-4.7-1l-1-4.7l4.3-4.2C25.2,0.1,24.5,0,23.8,0c-4.5,0-8.1,3.6-8.1,8
			c0,0.9,0.2,1.8,0.5,2.7L1.7,25.1c-1.7,1.7-1.9,4.4-0.5,5.8c1.5,1.5,4.1,1.3,5.9-0.4L21.7,16c0,0,0.1-0.1,0.1-0.1
			c0.6,0.1,1.3,0.3,1.9,0.3c4.5,0,8.1-3.6,8.1-8C31.8,7.4,31.7,6.7,31.5,6z M4.6,29.2c-0.9,0-1.5-0.7-1.5-1.5c0-0.9,0.7-1.5,1.5-1.5
			c0.8,0,1.5,0.7,1.5,1.5C6.1,28.5,5.4,29.2,4.6,29.2z"/>
	</g>
</g>
</svg>