<svg xmlns="http://www.w3.org/2000/svg" version="1.1" class="staticContent" height="100%" width="100%"
	 preserveAspectRatio="none" viewBox="0 0 32 32">

<g id="Train">
	<path fill="#666666" d="M32,31.1c0-0.1-0.1-0.2-0.2-0.3c-2.3-1.6-4.6-3.1-6.8-4.7c-0.1-0.1-0.2-0.2-0.4-0.3
		c0.1-0.1,0.2-0.1,0.3-0.2c1.4-0.7,2.5-1.5,3.2-2.9c0.3-0.7,0.5-1.4,0.5-2.2c0-4.7,0-9.5,0-14.2c0-1.9-0.8-3.4-2.3-4.6
		C25,0.8,23.6,0.4,22,0.1c-0.2,0-0.5-0.1-0.7-0.1c-3.5,0-7.1,0-10.6,0c-0.5,0.1-1,0.2-1.4,0.3c-1.5,0.3-3,0.9-4.1,2
		C4,3.3,3.4,4.6,3.4,6.1c0,4.7,0,9.4,0,14.1c0,2.2,1,3.8,2.7,4.9c0.4,0.3,0.8,0.5,1.3,0.7c-0.6,0.4-1.2,0.8-1.7,1.2
		C3.8,28.4,1.9,29.7,0,31c0,0.3,0,0.7,0,1c10.7,0,21.3,0,32,0C32,31.7,32,31.4,32,31.1z M20.4,3c0,0.6-0.5,1-1.1,1
		c-0.8,0-1.6,0-2.5,0c-0.2,0-0.4-0.2-0.4-0.4V2.3c0-0.2,0.2-0.4,0.4-0.4c0.8,0,1.7,0,2.5,0C20,2,20.4,2.4,20.4,3z M12.6,1.9
		c0.8,0,1.7,0,2.5,0c0.2,0,0.4,0.2,0.4,0.4v1.2c0,0.2-0.2,0.4-0.4,0.4c-0.8,0-1.7,0-2.5,0c-0.6,0-1.1-0.4-1.1-1
		C11.6,2.4,12,2,12.6,1.9z M6.1,12.8c-0.2-1.4-0.2-2.8,0-4.3c0.2-1.3,1-2.1,2.4-2.3c0.4-0.1,0.8-0.1,1.2-0.1c2.1,0,4.2,0,6.3,0
		c2.1,0,4.3,0,6.4,0c0.5,0,1,0.1,1.5,0.2c1.1,0.3,1.8,1,2,2.1c0.2,1.4,0.2,2.8,0,4.2c-0.2,1.4-1.1,2.1-2.5,2.3
		C23,15,22.6,15,22.2,15c-4.1,0-8.2,0-12.4,0c-0.6,0-1.2-0.1-1.7-0.2C7,14.6,6.3,13.8,6.1,12.8z M10.5,26.7
		c0.1-0.1,0.2-0.1,0.3-0.1c3.5,0,6.9,0,10.4,0c0.1,0,0.2,0,0.3,0.1c0.6,0.4,1.1,0.8,1.8,1.2c-4.9,0-9.7,0-14.6,0
		C9.3,27.5,9.9,27.1,10.5,26.7z M7.8,20.3c0-1,0.8-1.8,1.8-1.8c1,0,1.8,0.8,1.8,1.8c0,1-0.8,1.8-1.8,1.8C8.6,22,7.8,21.2,7.8,20.3z
		M22.4,22c-1,0-1.8-0.8-1.8-1.8c0-1,0.8-1.8,1.8-1.8c1,0,1.8,0.8,1.8,1.8C24.2,21.2,23.4,22,22.4,22z M4.9,30.6
		c0.7-0.5,1.4-0.9,2-1.4c0.1-0.1,0.2,0,0.3,0c5.9,0,11.8,0,17.7,0c0.2,0,0.3,0.1,0.5,0.1c0.6,0.4,1.2,0.8,1.8,1.3
		C19.7,30.6,12.3,30.6,4.9,30.6z"/>
</g>

<rect style="fill:none!important;stroke:none!important;pointer-events:all!important" x="2" y="0" width="28" height="32"/>
	</svg>