<svg xmlns="http://www.w3.org/2000/svg" version="1.1" class="staticContent" height="100%" width="100%"
     preserveAspectRatio="none" viewBox="0 0 32 32">

<path fill="#666666" d="M30.7,2.6c0-0.2-0.3-0.4-0.5-0.3l-7.5,1.3c-0.4,0.1-0.5,0.5-0.2,0.7l3,2.1L18,17.2l-6-3.9
	c-0.8-0.5-1.8-0.3-2.4,0.5L0.3,27c-0.6,0.8-0.4,1.9,0.4,2.4c0.3,0.2,0.6,0.3,0.9,0.3c0.6,0,1.2-0.2,1.5-0.7l8.3-11.9l6,3.9
	c0.8,0.5,1.8,0.3,2.4-0.5l8.5-12.2l3,2.1c0.3,0.2,0.7,0,0.6-0.4L30.7,2.6z"/>

<polygon style="fill:none!important;stroke:none!important;pointer-events:all!important" points="0,20 20,0 32,0 32,12 12,32 0,32"/>
    </svg>