<svg xmlns="http://www.w3.org/2000/svg" version="1.1" class="staticContent" height="100%" width="100%"
     preserveAspectRatio="none" viewBox="0 0 32 32">

    <g id="Truck">
        <path fill="#666666"
              d="M9,31.9H6.7c-0.3,0-0.5-0.2-0.5-0.5v-2.8c0-0.3,0.2-0.5,0.5-0.5H9c0.3,0,0.5,0.2,0.5,0.5v2.8 C9.5,31.7,9.3,31.9,9,31.9z"/>
        <path fill="#666666"
              d="M25.4,31.9h-2.3c-0.3,0-0.5-0.2-0.5-0.5v-2.8c0-0.3,0.2-0.5,0.5-0.5h2.3c0.3,0,0.5,0.2,0.5,0.5v2.8 C25.9,31.7,25.7,31.9,25.4,31.9z"/>
        <path fill="#666666" d="M27.4,0.1H4.6c-0.5,0-1,0.5-1,1v20.8c0,0.5,0.5,1,1,1h0.9V9.1c0-0.5,0.4-1,1-1h19c0.6,0,1,0.5,1,1v13.7
		h0.9c0.5,0,1-0.5,1-1V1.1C28.4,0.5,28,0.1,27.4,0.1z"/>
        <path fill="#666666" d="M24.9,8.9H7.2c-0.5,0-1,0.5-1,1v13.3c0,0.5,0.5,1,1,1h17.8c0.5,0,1-0.5,1-1V9.9
		C25.9,9.4,25.5,8.9,24.9,8.9z M12.3,22c0,0.5-0.5,1-1,1H8.6c-0.5,0-1-0.5-1-1v-0.3c0-0.5,0.5-1,1-1h2.6c0.5,0,1,0.5,1,1V22z
		M24.1,22c0,0.5-0.5,1-1,1h-2.6c-0.5,0-1-0.5-1-1v-0.3c0-0.5,0.5-1,1-1h2.6c0.5,0,1,0.5,1,1V22z M24.1,16.6c0,0.5-0.5,1-1,1H8.6
		c-0.5,0-1-0.5-1-1v-5.2c0-0.5,0.5-1,1-1h14.5c0.5,0,1,0.5,1,1V16.6z"/>
        <path fill="#666666" d="M26.5,24.8h-21c-0.5,0-1,0.5-1,1v1.1c0,0.5,0.5,1,1,1h21c0.5,0,1-0.5,1-1v-1.1
		C27.5,25.2,27.1,24.8,26.5,24.8z M8.9,27.1H6c-0.2,0-0.4-0.2-0.4-0.4v-0.8c0-0.2,0.2-0.4,0.4-0.4L9,27C9,27.1,8.9,27.1,8.9,27.1z
		M26.5,26.6c0,0.2-0.2,0.4-0.4,0.4h-2.9c-0.1,0-0.1,0-0.2,0l3.1-1.6c0.2,0,0.4,0.2,0.4,0.4V26.6z"/>
    </g>

    <rect style="fill:none!important;stroke:none!important;pointer-events:all!important" x="2" y="0" width="28"
          height="32"/>
</svg>