<svg xmlns="http://www.w3.org/2000/svg" version="1.1" class="staticContent" height="100%" width="100%"
     preserveAspectRatio="none" viewBox="0 0 32 32">

    <g id="Unbrella">
        <path d="M16,7.4V6V7l1.1,0C17,6.5,16.6,6,16,6V7l1.1,0V2.4H16l0,1.1c0.6,0,1-0.5,1.1-1.1H16l0,1.1V2.4h-1.1    c0,0.6,0.5,1,1.1,1.1V2.4h-1.1V7H16L16,6c-0.6,0-1,0.5-1.1,1.1H16L16,6V7.4v1.5c1,0,1.8-0.8,1.9-1.9V2.4c0-1-0.8-1.8-1.9-1.9    c-1,0-1.8,0.8-1.9,1.9V7c0,1,0.8,1.8,1.9,1.9V7.4z"/>
        <path d="m 16.7,24.8 0,0 0,-14.5 c 0,-0.5 -0.4,-1 -0.9,-1 -0.5,0 -0.9,0.4 -0.9,1 l 0,16.3 c -0.1,2.8 -1.6,2.5 -1.6,2.5 -1.1,0 -1.5,-1.2 -1.6,-1.7 -0.0425,-0.508849 -0.203525,-0.99216 -0.3,-1.4 -0.130702,-0.245849 -0.437819,-0.218909 -0.6,-0.3 -0.272268,-0.0094 -0.439156,0.219578 -0.6,0.3 -0.2,0.2 -0.2,0.4 -0.2,0.7 0,0.1 0,1 0.4,2.1 0.2,0.5 0.5,1.1 1,1.6 0.5,0.5 1.2,0.8 2,0.8 0.1,0 1.6,0 2.5,-1.4 0.9,-1.5 0.8,-3.1 0.8,-5 z"/>
        <path d="M 16 2.6992188 C 8.4 2.6992188 2.2007812 8.1007812 0.80078125 15.300781 L 1.1992188 15.300781 C 1.7992188 14.100781 3.0996094 13.199219 4.5996094 13.199219 C 6.0996094 13.199219 7.4 14.000781 8 15.300781 C 8 15.300781 9.1007812 13.199219 12.300781 13.199219 C 13.800781 13.199219 15.099219 14.100781 15.699219 15.300781 L 16 15.300781 L 16.300781 15.300781 C 16.900781 14.100781 18.199219 13.199219 19.699219 13.199219 C 22.899219 13.199219 24 15.300781 24 15.300781 C 24.6 14.000781 25.900391 13.199219 27.400391 13.199219 C 28.900391 13.199219 30.200781 14.100781 30.800781 15.300781 L 31.199219 15.300781 C 29.799219 8.1007813 23.6 2.6992188 16 2.6992188 z "/>
    </g>

</svg>