<svg xmlns="http://www.w3.org/2000/svg" version="1.1" class="staticContent" height="100%" width="100%"
     preserveAspectRatio="none" viewBox="0 0 32 32">

    <g id="Female">
        <circle fill="#666666" cx="16.1" cy="2.7" r="2.7"/>
        <path fill="#666666" d="M24.1,16.4c0,0-2-7.7-2.1-7.8c-0.6-1.7-2.2-2.9-4-2.9h-4.1c-2.2,0-4,1.6-4.2,3.7l-1.8,7
		c-0.2,0.6,0.2,1.3,0.9,1.5c0.6,0.2,1.3-0.2,1.5-0.9l1.8-7h0.9L9.5,22.2h3.3v8.3c0,0.8,0.7,1.5,1.5,1.5c0.8,0,1.5-0.7,1.5-1.5v-8.3
		h0.5v8.3c0,0.8,0.7,1.5,1.5,1.5s1.5-0.7,1.5-1.5v-8.3h3.3L19.2,10H20l1.8,7c0.2,0.6,0.8,1,1.5,0.9C23.9,17.7,24.3,17.1,24.1,16.4z"/>
    </g>
</svg>
